# MagicaVoxel @ Ephtracy

# group
o 

# material
mtllib CourtyardV01.mtl
usemtl palette

# normals
vn -1 0 0
vn 1 0 0
vn 0 0 1
vn 0 0 -1
vn 0 -1 0
vn 0 1 0

# texcoords
vt 0.251953 0.5
vt 0.853516 0.5
vt 0.873047 0.5
vt 0.958984 0.5
vt 0.978516 0.5
vt 0.982422 0.5
vt 0.990234 0.5
vt 0.994141 0.5

# verts
v -6.3 0.2 6.3
v -6.3 0.2 -6.3
v -6.3 0.3 6.3
v -6.3 0.3 -6.3
v -6.3 12.8 6.3
v -6.3 12.8 -6.3
v -3.8 0.3 6.3
v -3.8 0.3 1.1
v -3.8 0.3 -3.2
v -3.8 0.3 -4.6
v -3.8 0.3 -6.3
v -3.8 0.5 6.3
v -3.8 0.5 1.1
v -3.8 0.5 -4.6
v -3.8 0.5 -6.3
v -3.8 0.8 1.1
v -3.8 0.8 -3.2
v -3.8 3.7 -3.2
v -3.8 3.7 -6.3
v -3.5 0.5 6.3
v -3.5 0.5 1.1
v -3.5 0.7 6.3
v -3.5 0.7 1.1
v -3.2 0.7 6.3
v -3.2 0.7 1.1
v -3.2 0.8 1.1
v -3.2 0.9 6.3
v -3.2 0.9 1.1
v -2.9 0.8 1.1
v -2.9 0.8 0.9
v -2.9 0.8 -3.2
v -2.9 0.9 6.3
v -2.9 0.9 1.1
v -2.9 1.1 6.3
v -2.9 1.1 1.1
v -2.9 2.5 1.1
v -2.9 2.5 -3.2
v -2.6 1.1 6.3
v -2.6 1.1 1.1
v -2.6 1.3 6.3
v -2.6 1.3 1.1
v -2.3 1.3 6.3
v -2.3 1.3 1.1
v -2.3 1.5 6.3
v -2.3 1.5 1.1
v -2 1.5 6.3
v -2 1.5 1.1
v -2 1.7 6.3
v -2 1.7 1.1
v -1.7 1.7 6.3
v -1.7 1.7 1.1
v -1.7 1.9 6.3
v -1.7 1.9 1.1
v -1.7 2.3 0.9
v -1.7 2.3 0.3
v -1.7 2.5 0.9
v -1.7 2.5 0.3
v 0.5 1.9 6.3
v 0.5 1.9 0.9
v 0.5 2.1 6.3
v 0.5 2.1 1.1
v 0.5 2.1 0.9
v 0.5 2.1 0.6
v 0.5 2.3 0.6
v 0.5 2.3 0.2
v 0.5 2.5 1.1
v 0.5 2.5 0.2
v 0.8 2.1 6.3
v 0.8 2.1 1.1
v 0.8 2.3 6.3
v 0.8 2.3 1.1
v 3.6 3.5 0.4
v 3.6 3.5 -1.1
v 3.6 3.5 -2.2
v 3.6 3.5 -3.8
v 3.6 3.6 0.4
v 3.6 3.6 -1.1
v 3.6 3.6 -2.2
v 3.6 3.6 -3.8
v 3.7 2.3 6.3
v 3.7 2.3 1.1
v 3.7 2.3 -5.9
v 3.7 3.5 0.4
v 3.7 3.5 -1.1
v 3.7 3.5 -2.2
v 3.7 3.5 -3.8
v 3.7 3.6 0.4
v 3.7 3.6 0.3
v 3.7 3.6 -1
v 3.7 3.6 -1.1
v 3.7 3.6 -2.2
v 3.7 3.6 -2.4
v 3.7 3.6 -3.7
v 3.7 3.6 -3.8
v 3.7 3.7 -5.9
v 3.7 3.7 -6.3
v 3.7 5.7 0.3
v 3.7 5.7 -1
v 3.7 5.7 -2.4
v 3.7 5.7 -3.7
v 3.7 12.8 6.3
v 3.7 12.8 -6.3
v 3.9 3.6 0.3
v 3.9 3.6 -1
v 3.9 3.6 -2.4
v 3.9 3.6 -3.7
v 3.9 5.7 0.3
v 3.9 5.7 -1
v 3.9 5.7 -2.4
v 3.9 5.7 -3.7
v -6.2 1.2 5.5
v -6.2 1.2 4.1
v -6.2 1.2 3.8
v -6.2 1.2 2.2
v -6.2 1.2 1.9
v -6.2 1.2 0.2
v -6.2 2.7 5.5
v -6.2 2.7 4.1
v -6.2 2.7 3.8
v -6.2 2.7 2.2
v -6.2 2.7 1.9
v -6.2 2.7 0.2
v -6.1 0.3 6.3
v -6.1 0.3 4
v -6.1 0.3 3.9
v -6.1 0.3 0.0999999
v -6.1 0.3 0
v -6.1 0.3 -6.3
v -6.1 1.2 5.5
v -6.1 1.2 4.1
v -6.1 1.2 3.8
v -6.1 1.2 2.2
v -6.1 1.2 1.9
v -6.1 1.2 0.2
v -6.1 2.7 5.5
v -6.1 2.7 4.1
v -6.1 2.7 3.8
v -6.1 2.7 2.2
v -6.1 2.7 1.9
v -6.1 2.7 0.2
v -6.1 2.8 6.3
v -6.1 2.8 4
v -6.1 2.8 3.9
v -6.1 2.8 0.0999999
v -6.1 2.8 0
v -6.1 2.8 -6.3
v -6.1 3 6.3
v -6.1 3 4
v -6.1 3 3.9
v -6.1 3 0.0999999
v -6.1 3 0
v -6.1 3 -6.3
v -6.1 4.9 0
v -6.1 4.9 -0.0999999
v -6.1 6.9 4
v -6.1 6.9 3.9
v -6.1 7.2 0.0999999
v -6.1 7.2 -0.0999999
v -6.1 12.8 6.3
v -6.1 12.8 -6.3
v -6 0.3 4
v -6 0.3 3.9
v -6 0.3 0.0999999
v -6 0.3 0
v -6 2.8 6.3
v -6 2.8 4
v -6 2.8 3.9
v -6 2.8 0.0999999
v -6 2.8 0
v -6 2.8 -6.3
v -6 3 6.3
v -6 3 4
v -6 3 3.9
v -6 3 0.0999999
v -6 3 0
v -6 3 -6.3
v -6 4.9 0
v -6 4.9 -0.0999999
v -6 6.9 4
v -6 6.9 3.9
v -6 7.2 0.0999999
v -6 7.2 -0.0999999
v -2.7 2.3 0.9
v -2.7 2.3 -3.2
v -2.7 2.3 -4.7
v -2.7 2.3 -5.9
v -2.7 2.5 0.9
v -2.7 2.5 -3.2
v -2.7 3.7 -3.2
v -2.7 3.7 -5.9
v -1.5 1.9 1.1
v -1.5 1.9 0.9
v -1.5 2.1 0.9
v -1.5 2.1 0.6
v -1.5 2.3 0.6
v -1.5 2.3 0.3
v -1.5 2.5 1.1
v -1.5 2.5 0.3
v 0.8 2.3 1.1
v 0.8 2.3 0.2
v 0.8 2.5 1.1
v 0.8 2.5 0.2
v 6.3 0.2 6.3
v 6.3 0.2 -6.3
v 6.3 0.3 6.3
v 6.3 0.3 -6.3
v 6.3 12.8 6.3
v 6.3 12.8 -6.3
v -6.3 0.2 6.3
v -6.3 0.3 6.3
v -6.3 12.8 6.3
v -6.2 0.2 6.3
v -6.2 0.3 6.3
v -6.1 0.3 6.3
v -6.1 2.8 6.3
v -6.1 3 6.3
v -6.1 12.8 6.3
v -6 2.8 6.3
v -6 3 6.3
v -3.8 0.3 6.3
v -3.8 0.5 6.3
v -3.5 0.5 6.3
v -3.5 0.7 6.3
v -3.2 0.7 6.3
v -3.2 0.9 6.3
v -2.9 0.9 6.3
v -2.9 1.1 6.3
v -2.6 1.1 6.3
v -2.6 1.3 6.3
v -2.3 1.3 6.3
v -2.3 1.5 6.3
v -2 1.5 6.3
v -2 1.7 6.3
v -1.7 1.7 6.3
v -1.7 1.9 6.3
v 0.5 0.3 6.3
v 0.5 1.9 6.3
v 0.5 2.1 6.3
v 0.6 1.9 6.3
v 0.6 2 6.3
v 0.8 2 6.3
v 0.8 2.1 6.3
v 0.8 2.3 6.3
v 0.9 2.1 6.3
v 0.9 2.2 6.3
v 3.7 2.3 6.3
v 3.7 12.8 6.3
v 6.2 0.3 6.3
v 6.2 2.2 6.3
v 6.2 2.3 6.3
v 6.3 0.2 6.3
v 6.3 0.3 6.3
v 6.3 12.8 6.3
v -6.2 1.2 4.1
v -6.2 2.7 4.1
v -6.1 1.2 4.1
v -6.1 2.7 4.1
v -6.1 0.3 4
v -6.1 2.8 4
v -6.1 3 4
v -6.1 6.9 4
v -6 0.3 4
v -6 2.8 4
v -6 3 4
v -6 6.9 4
v -6.2 1.2 2.2
v -6.2 2.7 2.2
v -6.1 1.2 2.2
v -6.1 2.7 2.2
v -3.8 0.5 1.1
v -3.8 0.8 1.1
v -3.5 0.5 1.1
v -3.5 0.7 1.1
v -3.2 0.7 1.1
v -3.2 0.8 1.1
v -2.9 1.1 1.1
v -2.9 2.5 1.1
v -2.6 1.1 1.1
v -2.6 1.3 1.1
v -2.3 1.3 1.1
v -2.3 1.5 1.1
v -2 1.5 1.1
v -2 1.7 1.1
v -1.7 1.7 1.1
v -1.7 1.9 1.1
v -1.5 1.9 1.1
v -1.5 2.5 1.1
v 0.5 2.1 1.1
v 0.5 2.5 1.1
v 0.8 2.1 1.1
v 0.8 2.3 1.1
v 0.8 2.5 1.1
v -1.5 1.9 0.9
v -1.5 2.1 0.9
v 0.5 1.9 0.9
v 0.5 2.1 0.9
v -1.5 2.1 0.6
v -1.5 2.3 0.6
v 0.5 2.1 0.6
v 0.5 2.3 0.6
v 3.6 3.5 0.4
v 3.6 3.6 0.4
v 3.7 3.5 0.4
v 3.7 3.6 0.4
v -6.2 1.2 0.2
v -6.2 2.7 0.2
v -6.1 1.2 0.2
v -6.1 2.7 0.2
v -6.1 0.3 0.0999999
v -6.1 2.8 0.0999999
v -6.1 3 0.0999999
v -6.1 7.2 0.0999999
v -6 0.3 0.0999999
v -6 2.8 0.0999999
v -6 3 0.0999999
v -6 7.2 0.0999999
v 3.7 3.6 -1
v 3.7 5.7 -1
v 3.9 3.6 -1
v 3.9 5.7 -1
v 3.6 3.5 -2.2
v 3.6 3.6 -2.2
v 3.7 3.5 -2.2
v 3.7 3.6 -2.2
v -3.8 0.8 -3.2
v -3.8 3.7 -3.2
v -3.6 0.8 -3.2
v -2.9 0.8 -3.2
v -2.9 2.5 -3.2
v -2.7 2.5 -3.2
v -2.7 3.7 -3.2
v 3.7 3.6 -3.7
v 3.7 5.7 -3.7
v 3.9 3.6 -3.7
v 3.9 5.7 -3.7
v -2.7 2.3 -5.9
v -2.7 3.7 -5.9
v 3.7 2.3 -5.9
v 3.7 3.7 -5.9
v -6.2 1.2 5.5
v -6.2 2.7 5.5
v -6.1 1.2 5.5
v -6.1 2.7 5.5
v -6.1 0.3 3.9
v -6.1 2.8 3.9
v -6.1 3 3.9
v -6.1 6.9 3.9
v -6 0.3 3.9
v -6 2.8 3.9
v -6 3 3.9
v -6 6.9 3.9
v -6.2 1.2 3.8
v -6.2 2.7 3.8
v -6.1 1.2 3.8
v -6.1 2.7 3.8
v -6.2 1.2 1.9
v -6.2 2.7 1.9
v -6.1 1.2 1.9
v -6.1 2.7 1.9
v -3.2 0.8 1.1
v -3.2 0.9 1.1
v -2.9 0.8 1.1
v -2.9 0.9 1.1
v -2.7 2.3 0.9
v -2.7 2.5 0.9
v -1.7 2.3 0.9
v -1.7 2.5 0.9
v -1.7 2.3 0.3
v -1.7 2.5 0.3
v -1.5 2.3 0.3
v -1.5 2.5 0.3
v 3.7 3.6 0.3
v 3.7 5.7 0.3
v 3.9 3.6 0.3
v 3.9 5.7 0.3
v 0.5 2.3 0.2
v 0.5 2.5 0.2
v 0.8 2.3 0.2
v 0.8 2.5 0.2
v -6.1 0.3 0
v -6.1 2.8 0
v -6.1 3 0
v -6.1 4.9 0
v -6 0.3 0
v -6 2.8 0
v -6 3 0
v -6 4.9 0
v -6.1 4.9 -0.0999999
v -6.1 7.2 -0.0999999
v -6 4.9 -0.0999999
v -6 7.2 -0.0999999
v 3.6 3.5 -1.1
v 3.6 3.6 -1.1
v 3.7 3.5 -1.1
v 3.7 3.6 -1.1
v 3.7 3.6 -2.4
v 3.7 5.7 -2.4
v 3.9 3.6 -2.4
v 3.9 5.7 -2.4
v 3.6 3.5 -3.8
v 3.6 3.6 -3.8
v 3.7 3.5 -3.8
v 3.7 3.6 -3.8
v -6.3 0.2 -6.3
v -6.3 0.3 -6.3
v -6.3 12.8 -6.3
v -6.2 0.2 -6.3
v -6.2 0.3 -6.3
v -6.1 0.3 -6.3
v -6.1 2.8 -6.3
v -6.1 3 -6.3
v -6.1 12.8 -6.3
v -6 2.8 -6.3
v -6 3 -6.3
v -3.8 0.3 -6.3
v -3.8 0.5 -6.3
v -3.8 3.7 -6.3
v -3.5 0.5 -6.3
v -3.5 0.7 -6.3
v -3.2 0.7 -6.3
v -3.2 0.9 -6.3
v -2.9 0.9 -6.3
v -2.9 1.1 -6.3
v -2.7 2.2 -6.3
v -2.7 2.3 -6.3
v -2.6 1.1 -6.3
v -2.6 1.3 -6.3
v -2.3 1.3 -6.3
v -2.3 1.5 -6.3
v -2 1.5 -6.3
v -2 1.7 -6.3
v -1.7 1.7 -6.3
v -1.7 1.9 -6.3
v 0.5 0.3 -6.3
v 0.5 1.9 -6.3
v 0.5 2.1 -6.3
v 0.8 2.1 -6.3
v 0.8 2.2 -6.3
v 3.7 2.2 -6.3
v 3.7 2.3 -6.3
v 3.7 3.7 -6.3
v 3.7 12.8 -6.3
v 6.2 0.3 -6.3
v 6.2 2.3 -6.3
v 6.3 0.2 -6.3
v 6.3 0.3 -6.3
v 6.3 12.8 -6.3
v -6.3 0.2 6.3
v -6.2 0.2 6.3
v 6.3 0.2 6.3
v -6.3 0.2 -6.3
v -6.2 0.2 -6.3
v 6.3 0.2 -6.3
v -6.2 2.7 5.5
v -6.1 2.7 5.5
v -6.2 2.7 4.1
v -6.1 2.7 4.1
v -6.2 2.7 3.8
v -6.1 2.7 3.8
v -6.2 2.7 2.2
v -6.1 2.7 2.2
v -6.2 2.7 1.9
v -6.1 2.7 1.9
v -6.2 2.7 0.2
v -6.1 2.7 0.2
v -6.1 2.8 6.3
v -6 2.8 6.3
v -6.1 2.8 4
v -6 2.8 4
v -6.1 2.8 3.9
v -6 2.8 3.9
v -6.1 2.8 0.0999999
v -6 2.8 0.0999999
v -6.1 2.8 0
v -6 2.8 0
v -6.1 2.8 -6.3
v -6 2.8 -6.3
v 3.6 3.5 0.4
v 3.7 3.5 0.4
v 3.6 3.5 -1.1
v 3.7 3.5 -1.1
v 3.6 3.5 -2.2
v 3.7 3.5 -2.2
v 3.6 3.5 -3.8
v 3.7 3.5 -3.8
v -6.1 4.9 0
v -6 4.9 0
v -6.1 4.9 -0.0999999
v -6 4.9 -0.0999999
v 3.7 5.7 0.3
v 3.9 5.7 0.3
v 3.7 5.7 -1
v 3.9 5.7 -1
v 3.7 5.7 -2.4
v 3.9 5.7 -2.4
v 3.7 5.7 -3.7
v 3.9 5.7 -3.7
v -6.1 0.3 6.3
v -3.8 0.3 6.3
v -6.1 0.3 4
v -6 0.3 4
v -6.1 0.3 3.9
v -6 0.3 3.9
v -3.8 0.3 1.1
v -6.1 0.3 0.0999999
v -6 0.3 0.0999999
v -6.1 0.3 0
v -6 0.3 0
v -3.8 0.3 -3.2
v -3.8 0.3 -4.6
v -6.1 0.3 -6.3
v -3.8 0.3 -6.3
v -3.8 0.5 6.3
v -3.5 0.5 6.3
v -3.8 0.5 1.1
v -3.5 0.5 1.1
v -3.5 0.7 6.3
v -3.2 0.7 6.3
v -3.5 0.7 1.1
v -3.2 0.7 1.1
v -3.8 0.8 1.1
v -3.2 0.8 1.1
v -2.9 0.8 1.1
v -3.6 0.8 0.9
v -2.9 0.8 0.9
v -3.8 0.8 -3.2
v -3.6 0.8 -3.2
v -2.9 0.8 -3.2
v -3.2 0.9 6.3
v -2.9 0.9 6.3
v -3.2 0.9 1.1
v -2.9 0.9 1.1
v -2.9 1.1 6.3
v -2.6 1.1 6.3
v -2.9 1.1 1.1
v -2.6 1.1 1.1
v -6.2 1.2 5.5
v -6.1 1.2 5.5
v -6.2 1.2 4.1
v -6.1 1.2 4.1
v -6.2 1.2 3.8
v -6.1 1.2 3.8
v -6.2 1.2 2.2
v -6.1 1.2 2.2
v -6.2 1.2 1.9
v -6.1 1.2 1.9
v -6.2 1.2 0.2
v -6.1 1.2 0.2
v -2.6 1.3 6.3
v -2.3 1.3 6.3
v -2.6 1.3 1.1
v -2.3 1.3 1.1
v -2.3 1.5 6.3
v -2 1.5 6.3
v -2.3 1.5 1.1
v -2 1.5 1.1
v -2 1.7 6.3
v -1.7 1.7 6.3
v -2 1.7 1.1
v -1.7 1.7 1.1
v -1.7 1.9 6.3
v 0.5 1.9 6.3
v -1.7 1.9 1.1
v -1.5 1.9 1.1
v -1.5 1.9 0.9
v 0.5 1.9 0.9
v 0.5 2.1 6.3
v 0.8 2.1 6.3
v 0.5 2.1 1.1
v 0.8 2.1 1.1
v -1.5 2.1 0.9
v 0.5 2.1 0.9
v -1.5 2.1 0.6
v 0.5 2.1 0.6
v 0.8 2.3 6.3
v 3.7 2.3 6.3
v 0.8 2.3 1.1
v 3.7 2.3 1.1
v -2.7 2.3 0.9
v -1.7 2.3 0.9
v -1.5 2.3 0.6
v 0.5 2.3 0.6
v -1.7 2.3 0.3
v -1.5 2.3 0.3
v 0.5 2.3 0.2
v 0.8 2.3 0.2
v 2.4 2.3 0.2
v -2.7 2.3 -3.2
v -2.7 2.3 -4.7
v 2.4 2.3 -4.7
v -2.7 2.3 -5.9
v 3.7 2.3 -5.9
v -2.9 2.5 1.1
v -1.5 2.5 1.1
v 0.5 2.5 1.1
v 0.8 2.5 1.1
v -2.7 2.5 0.9
v -1.7 2.5 0.9
v -1.7 2.5 0.3
v -1.5 2.5 0.3
v 0.5 2.5 0.2
v 0.8 2.5 0.2
v -2.9 2.5 -3.2
v -2.7 2.5 -3.2
v -6.1 3 6.3
v -6 3 6.3
v -6.1 3 4
v -6 3 4
v -6.1 3 3.9
v -6 3 3.9
v -6.1 3 0.0999999
v -6 3 0.0999999
v -6.1 3 0
v -6 3 0
v -6.1 3 -6.3
v -6 3 -6.3
v 3.6 3.6 0.4
v 3.7 3.6 0.4
v 3.7 3.6 0.3
v 3.9 3.6 0.3
v 3.7 3.6 -1
v 3.9 3.6 -1
v 3.6 3.6 -1.1
v 3.7 3.6 -1.1
v 3.6 3.6 -2.2
v 3.7 3.6 -2.2
v 3.7 3.6 -2.4
v 3.9 3.6 -2.4
v 3.7 3.6 -3.7
v 3.9 3.6 -3.7
v 3.6 3.6 -3.8
v 3.7 3.6 -3.8
v -3.8 3.7 -3.2
v -2.7 3.7 -3.2
v -2.7 3.7 -5.9
v 3.7 3.7 -5.9
v -3.8 3.7 -6.3
v 3.7 3.7 -6.3
v -6.1 6.9 4
v -6 6.9 4
v -6.1 6.9 3.9
v -6 6.9 3.9
v -6.1 7.2 0.0999999
v -6 7.2 0.0999999
v -6.1 7.2 -0.0999999
v -6 7.2 -0.0999999
v -6.3 12.8 6.3
v -6.1 12.8 6.3
v 3.7 12.8 6.3
v 6.3 12.8 6.3
v -6.3 12.8 -6.3
v -6.1 12.8 -6.3
v 3.7 12.8 -6.3
v 6.3 12.8 -6.3

# faces
f 3/1/1 2/1/1 1/1/1
f 4/1/1 2/1/1 3/1/1
f 5/2/1 4/2/1 3/2/1
f 6/2/1 4/2/1 5/2/1
f 12/5/1 8/5/1 7/5/1
f 13/4/1 9/4/1 8/4/1
f 13/5/1 8/5/1 12/5/1
f 14/5/1 11/5/1 10/5/1
f 14/7/1 10/7/1 9/7/1
f 15/5/1 11/5/1 14/5/1
f 16/4/1 9/4/1 13/4/1
f 17/7/1 15/7/1 14/7/1
f 17/4/1 9/4/1 16/4/1
f 17/7/1 14/7/1 9/7/1
f 18/7/1 15/7/1 17/7/1
f 19/7/1 15/7/1 18/7/1
f 22/5/1 21/5/1 20/5/1
f 23/5/1 21/5/1 22/5/1
f 26/5/1 25/5/1 24/5/1
f 27/5/1 26/5/1 24/5/1
f 28/5/1 26/5/1 27/5/1
f 33/4/1 30/4/1 29/4/1
f 33/4/1 31/4/1 30/4/1
f 34/5/1 33/5/1 32/5/1
f 35/4/1 31/4/1 33/4/1
f 35/5/1 33/5/1 34/5/1
f 36/4/1 31/4/1 35/4/1
f 37/4/1 31/4/1 36/4/1
f 40/5/1 39/5/1 38/5/1
f 41/5/1 39/5/1 40/5/1
f 44/5/1 43/5/1 42/5/1
f 45/5/1 43/5/1 44/5/1
f 48/5/1 47/5/1 46/5/1
f 49/5/1 47/5/1 48/5/1
f 52/5/1 51/5/1 50/5/1
f 53/5/1 51/5/1 52/5/1
f 56/4/1 55/4/1 54/4/1
f 57/4/1 55/4/1 56/4/1
f 60/5/1 59/5/1 58/5/1
f 61/5/1 59/5/1 60/5/1
f 62/5/1 59/5/1 61/5/1
f 64/5/1 63/5/1 62/5/1
f 64/5/1 62/5/1 61/5/1
f 66/5/1 64/5/1 61/5/1
f 66/5/1 65/5/1 64/5/1
f 67/5/1 65/5/1 66/5/1
f 70/5/1 69/5/1 68/5/1
f 71/5/1 69/5/1 70/5/1
f 76/7/1 73/7/1 72/7/1
f 77/7/1 73/7/1 76/7/1
f 78/7/1 75/7/1 74/7/1
f 79/7/1 75/7/1 78/7/1
f 83/7/1 81/7/1 80/7/1
f 83/7/1 82/7/1 81/7/1
f 84/7/1 82/7/1 83/7/1
f 85/7/1 82/7/1 84/7/1
f 86/7/1 82/7/1 85/7/1
f 87/7/1 83/7/1 80/7/1
f 90/7/1 85/7/1 84/7/1
f 91/7/1 85/7/1 90/7/1
f 94/7/1 82/7/1 86/7/1
f 95/7/1 82/7/1 94/7/1
f 95/7/1 94/7/1 93/7/1
f 97/7/1 88/7/1 87/7/1
f 98/7/1 92/7/1 91/7/1
f 98/7/1 90/7/1 89/7/1
f 98/7/1 91/7/1 90/7/1
f 99/7/1 92/7/1 98/7/1
f 100/7/1 96/7/1 95/7/1
f 100/7/1 95/7/1 93/7/1
f 101/7/1 97/7/1 87/7/1
f 101/7/1 100/7/1 99/7/1
f 101/7/1 99/7/1 98/7/1
f 101/7/1 87/7/1 80/7/1
f 101/7/1 98/7/1 97/7/1
f 102/7/1 96/7/1 100/7/1
f 102/7/1 100/7/1 101/7/1
f 107/7/1 104/7/1 103/7/1
f 108/7/1 104/7/1 107/7/1
f 109/7/1 106/7/1 105/7/1
f 110/7/1 106/7/1 109/7/1
f 111/2/2 112/2/2 117/2/2
f 117/2/2 112/2/2 118/2/2
f 113/2/2 114/2/2 119/2/2
f 119/2/2 114/2/2 120/2/2
f 115/2/2 116/2/2 121/2/2
f 121/2/2 116/2/2 122/2/2
f 123/2/2 124/2/2 129/2/2
f 129/2/2 124/2/2 130/2/2
f 125/2/2 126/2/2 131/2/2
f 131/2/2 126/2/2 132/2/2
f 132/2/2 126/2/2 133/2/2
f 133/2/2 126/2/2 134/2/2
f 123/2/2 129/2/2 135/2/2
f 130/2/2 124/2/2 136/2/2
f 125/2/2 131/2/2 137/2/2
f 132/2/2 133/2/2 138/2/2
f 138/2/2 133/2/2 139/2/2
f 134/2/2 126/2/2 140/2/2
f 123/2/2 135/2/2 141/2/2
f 135/2/2 136/2/2 141/2/2
f 136/2/2 124/2/2 142/2/2
f 141/2/2 136/2/2 142/2/2
f 139/2/2 140/2/2 143/2/2
f 138/2/2 139/2/2 143/2/2
f 125/2/2 137/2/2 143/2/2
f 137/2/2 138/2/2 143/2/2
f 140/2/2 126/2/2 144/2/2
f 143/2/2 140/2/2 144/2/2
f 127/2/2 128/2/2 145/2/2
f 145/2/2 128/2/2 146/2/2
f 151/2/2 152/2/2 153/2/2
f 153/2/2 152/2/2 154/2/2
f 147/2/2 148/2/2 155/2/2
f 149/2/2 150/2/2 156/2/2
f 156/2/2 150/2/2 157/2/2
f 155/2/2 156/2/2 157/2/2
f 154/2/2 152/2/2 158/2/2
f 155/2/2 157/2/2 159/2/2
f 157/2/2 158/2/2 159/2/2
f 147/2/2 155/2/2 159/2/2
f 158/2/2 152/2/2 160/2/2
f 159/2/2 158/2/2 160/2/2
f 161/2/2 162/2/2 166/2/2
f 166/2/2 162/2/2 167/2/2
f 163/2/2 164/2/2 168/2/2
f 168/2/2 164/2/2 169/2/2
f 166/8/2 167/8/2 171/8/2
f 169/8/2 170/8/2 171/8/2
f 168/8/2 169/8/2 171/8/2
f 167/8/2 168/8/2 171/8/2
f 165/8/2 166/8/2 171/8/2
f 171/8/2 170/8/2 172/8/2
f 172/8/2 170/8/2 173/8/2
f 173/8/2 170/8/2 174/8/2
f 174/8/2 170/8/2 175/8/2
f 175/8/2 170/8/2 176/8/2
f 174/2/2 175/2/2 177/2/2
f 172/2/2 173/2/2 179/2/2
f 179/2/2 173/2/2 180/2/2
f 177/2/2 178/2/2 181/2/2
f 174/2/2 177/2/2 181/2/2
f 181/2/2 178/2/2 182/2/2
f 183/4/2 184/4/2 187/4/2
f 185/7/2 186/7/2 188/7/2
f 187/4/2 184/4/2 188/4/2
f 184/7/2 185/7/2 188/7/2
f 188/7/2 186/7/2 189/7/2
f 189/7/2 186/7/2 190/7/2
f 191/4/2 192/4/2 193/4/2
f 193/4/2 194/4/2 195/4/2
f 191/4/2 193/4/2 197/4/2
f 195/4/2 196/4/2 197/4/2
f 193/4/2 195/4/2 197/4/2
f 197/4/2 196/4/2 198/4/2
f 199/5/2 200/5/2 201/5/2
f 201/5/2 200/5/2 202/5/2
f 203/6/2 204/6/2 205/6/2
f 205/6/2 204/6/2 206/6/2
f 205/7/2 206/7/2 207/7/2
f 207/7/2 206/7/2 208/7/2
f 212/1/3 210/1/3 209/1/3
f 213/2/3 211/2/3 210/2/3
f 213/1/3 210/1/3 212/1/3
f 214/6/3 213/6/3 212/6/3
f 214/2/3 211/2/3 213/2/3
f 215/2/3 211/2/3 214/2/3
f 216/2/3 211/2/3 215/2/3
f 217/2/3 211/2/3 216/2/3
f 218/8/3 216/8/3 215/8/3
f 219/8/3 216/8/3 218/8/3
f 220/6/3 214/6/3 212/6/3
f 222/5/3 221/5/3 220/5/3
f 224/5/3 223/5/3 222/5/3
f 226/5/3 225/5/3 224/5/3
f 228/5/3 227/5/3 226/5/3
f 230/5/3 229/5/3 228/5/3
f 232/5/3 231/5/3 230/5/3
f 234/5/3 233/5/3 232/5/3
f 236/6/3 220/6/3 212/6/3
f 236/5/3 235/5/3 234/5/3
f 236/5/3 234/5/3 232/5/3
f 236/5/3 232/5/3 230/5/3
f 236/5/3 230/5/3 228/5/3
f 236/5/3 228/5/3 226/5/3
f 236/5/3 226/5/3 224/5/3
f 236/5/3 224/5/3 222/5/3
f 236/5/3 222/5/3 220/5/3
f 237/5/3 235/5/3 236/5/3
f 239/4/3 237/4/3 236/4/3
f 239/5/3 238/5/3 237/5/3
f 240/5/3 238/5/3 239/5/3
f 241/4/3 240/4/3 239/4/3
f 241/5/3 238/5/3 240/5/3
f 242/5/3 238/5/3 241/5/3
f 244/4/3 242/4/3 241/4/3
f 244/5/3 243/5/3 242/5/3
f 245/5/3 243/5/3 244/5/3
f 246/5/3 243/5/3 245/5/3
f 248/6/3 236/6/3 212/6/3
f 248/4/3 239/4/3 236/4/3
f 248/4/3 245/4/3 244/4/3
f 248/4/3 244/4/3 241/4/3
f 248/4/3 241/4/3 239/4/3
f 249/5/3 246/5/3 245/5/3
f 249/4/3 245/4/3 248/4/3
f 250/7/3 247/7/3 246/7/3
f 250/5/3 246/5/3 249/5/3
f 251/6/3 248/6/3 212/6/3
f 252/7/3 249/7/3 248/7/3
f 252/6/3 248/6/3 251/6/3
f 252/7/3 250/7/3 249/7/3
f 253/7/3 247/7/3 250/7/3
f 253/7/3 250/7/3 252/7/3
f 256/2/3 255/2/3 254/2/3
f 257/2/3 255/2/3 256/2/3
f 262/2/3 259/2/3 258/2/3
f 263/2/3 259/2/3 262/2/3
f 264/2/3 261/2/3 260/2/3
f 265/2/3 261/2/3 264/2/3
f 268/2/3 267/2/3 266/2/3
f 269/2/3 267/2/3 268/2/3
f 272/4/3 271/4/3 270/4/3
f 273/4/3 271/4/3 272/4/3
f 274/4/3 271/4/3 273/4/3
f 275/4/3 271/4/3 274/4/3
f 278/4/3 277/4/3 276/4/3
f 279/4/3 277/4/3 278/4/3
f 280/4/3 277/4/3 279/4/3
f 281/4/3 277/4/3 280/4/3
f 282/4/3 277/4/3 281/4/3
f 283/4/3 277/4/3 282/4/3
f 284/4/3 277/4/3 283/4/3
f 285/4/3 277/4/3 284/4/3
f 286/4/3 277/4/3 285/4/3
f 287/4/3 277/4/3 286/4/3
f 290/5/3 289/5/3 288/5/3
f 291/5/3 289/5/3 290/5/3
f 292/5/3 289/5/3 291/5/3
f 295/5/3 294/5/3 293/5/3
f 296/5/3 294/5/3 295/5/3
f 299/5/3 298/5/3 297/5/3
f 300/5/3 298/5/3 299/5/3
f 303/7/3 302/7/3 301/7/3
f 304/7/3 302/7/3 303/7/3
f 307/2/3 306/2/3 305/2/3
f 308/2/3 306/2/3 307/2/3
f 313/2/3 310/2/3 309/2/3
f 314/2/3 310/2/3 313/2/3
f 315/2/3 312/2/3 311/2/3
f 316/2/3 312/2/3 315/2/3
f 319/7/3 318/7/3 317/7/3
f 320/7/3 318/7/3 319/7/3
f 323/7/3 322/7/3 321/7/3
f 324/7/3 322/7/3 323/7/3
f 327/7/3 326/7/3 325/7/3
f 328/7/3 326/7/3 327/7/3
f 329/7/3 326/7/3 328/7/3
f 330/7/3 326/7/3 329/7/3
f 331/7/3 326/7/3 330/7/3
f 334/7/3 333/7/3 332/7/3
f 335/7/3 333/7/3 334/7/3
f 338/7/3 337/7/3 336/7/3
f 339/7/3 337/7/3 338/7/3
f 340/2/4 341/2/4 342/2/4
f 342/2/4 341/2/4 343/2/4
f 344/2/4 345/2/4 348/2/4
f 348/2/4 345/2/4 349/2/4
f 346/2/4 347/2/4 350/2/4
f 350/2/4 347/2/4 351/2/4
f 352/2/4 353/2/4 354/2/4
f 354/2/4 353/2/4 355/2/4
f 356/2/4 357/2/4 358/2/4
f 358/2/4 357/2/4 359/2/4
f 360/5/4 361/5/4 362/5/4
f 362/5/4 361/5/4 363/5/4
f 364/4/4 365/4/4 366/4/4
f 366/4/4 365/4/4 367/4/4
f 368/4/4 369/4/4 370/4/4
f 370/4/4 369/4/4 371/4/4
f 372/7/4 373/7/4 374/7/4
f 374/7/4 373/7/4 375/7/4
f 376/5/4 377/5/4 378/5/4
f 378/5/4 377/5/4 379/5/4
f 380/2/4 381/2/4 384/2/4
f 384/2/4 381/2/4 385/2/4
f 382/2/4 383/2/4 386/2/4
f 386/2/4 383/2/4 387/2/4
f 388/2/4 389/2/4 390/2/4
f 390/2/4 389/2/4 391/2/4
f 392/7/4 393/7/4 394/7/4
f 394/7/4 393/7/4 395/7/4
f 396/7/4 397/7/4 398/7/4
f 398/7/4 397/7/4 399/7/4
f 400/7/4 401/7/4 402/7/4
f 402/7/4 401/7/4 403/7/4
f 404/1/4 405/1/4 407/1/4
f 405/2/4 406/2/4 408/2/4
f 407/1/4 405/1/4 408/1/4
f 407/6/4 408/6/4 409/6/4
f 408/2/4 406/2/4 409/2/4
f 409/2/4 406/2/4 410/2/4
f 410/2/4 406/2/4 411/2/4
f 411/2/4 406/2/4 412/2/4
f 410/8/4 411/8/4 413/8/4
f 413/8/4 411/8/4 414/8/4
f 407/6/4 409/6/4 415/6/4
f 415/5/4 416/5/4 418/5/4
f 416/7/4 417/7/4 418/7/4
f 418/7/4 417/7/4 419/7/4
f 418/5/4 419/5/4 420/5/4
f 419/7/4 417/7/4 420/7/4
f 420/7/4 417/7/4 421/7/4
f 420/5/4 421/5/4 422/5/4
f 421/7/4 417/7/4 422/7/4
f 422/7/4 417/7/4 423/7/4
f 423/7/4 417/7/4 424/7/4
f 424/7/4 417/7/4 425/7/4
f 422/5/4 423/5/4 426/5/4
f 423/7/4 424/7/4 426/7/4
f 426/7/4 424/7/4 427/7/4
f 426/5/4 427/5/4 428/5/4
f 427/7/4 424/7/4 428/7/4
f 428/7/4 424/7/4 429/7/4
f 428/5/4 429/5/4 430/5/4
f 429/7/4 424/7/4 430/7/4
f 430/7/4 424/7/4 431/7/4
f 430/5/4 431/5/4 432/5/4
f 431/7/4 424/7/4 432/7/4
f 432/7/4 424/7/4 433/7/4
f 407/6/4 415/6/4 434/6/4
f 415/5/4 418/5/4 434/5/4
f 432/5/4 433/5/4 434/5/4
f 430/5/4 432/5/4 434/5/4
f 428/5/4 430/5/4 434/5/4
f 426/5/4 428/5/4 434/5/4
f 422/5/4 426/5/4 434/5/4
f 418/5/4 420/5/4 434/5/4
f 420/5/4 422/5/4 434/5/4
f 433/7/4 424/7/4 435/7/4
f 434/5/4 433/5/4 435/5/4
f 435/7/4 424/7/4 436/7/4
f 434/4/4 435/4/4 437/4/4
f 436/7/4 424/7/4 437/7/4
f 435/4/4 436/4/4 437/4/4
f 424/3/4 425/3/4 438/3/4
f 437/7/4 424/7/4 438/7/4
f 437/4/4 438/4/4 439/4/4
f 438/3/4 425/3/4 439/3/4
f 425/7/4 417/7/4 440/7/4
f 439/3/4 425/3/4 440/3/4
f 440/7/4 417/7/4 441/7/4
f 407/6/4 434/6/4 443/6/4
f 434/4/4 437/4/4 443/4/4
f 437/4/4 439/4/4 443/4/4
f 439/4/4 440/4/4 443/4/4
f 441/7/4 442/7/4 444/7/4
f 443/4/4 440/4/4 444/4/4
f 440/7/4 441/7/4 444/7/4
f 407/6/4 443/6/4 445/6/4
f 443/7/4 444/7/4 446/7/4
f 445/6/4 443/6/4 446/6/4
f 444/7/4 442/7/4 447/7/4
f 446/7/4 444/7/4 447/7/4
f 451/1/5 449/1/5 448/1/5
f 452/6/5 450/6/5 449/6/5
f 452/1/5 449/1/5 451/1/5
f 453/6/5 450/6/5 452/6/5
f 456/2/5 455/2/5 454/2/5
f 457/2/5 455/2/5 456/2/5
f 460/2/5 459/2/5 458/2/5
f 461/2/5 459/2/5 460/2/5
f 464/2/5 463/2/5 462/2/5
f 465/2/5 463/2/5 464/2/5
f 468/8/5 467/8/5 466/8/5
f 469/8/5 467/8/5 468/8/5
f 472/8/5 471/8/5 470/8/5
f 473/8/5 471/8/5 472/8/5
f 476/8/5 475/8/5 474/8/5
f 477/8/5 475/8/5 476/8/5
f 480/7/5 479/7/5 478/7/5
f 481/7/5 479/7/5 480/7/5
f 484/7/5 483/7/5 482/7/5
f 485/7/5 483/7/5 484/7/5
f 488/2/5 487/2/5 486/2/5
f 489/2/5 487/2/5 488/2/5
f 492/7/5 491/7/5 490/7/5
f 493/7/5 491/7/5 492/7/5
f 496/7/5 495/7/5 494/7/5
f 497/7/5 495/7/5 496/7/5
f 498/6/6 499/6/6 500/6/6
f 500/6/6 499/6/6 501/6/6
f 501/6/6 499/6/6 503/6/6
f 503/6/6 499/6/6 504/6/6
f 502/6/6 503/6/6 504/6/6
f 502/6/6 504/6/6 505/6/6
f 505/6/6 504/6/6 506/6/6
f 506/6/6 504/6/6 508/6/6
f 508/6/6 504/6/6 509/6/6
f 507/6/6 508/6/6 509/6/6
f 507/6/6 509/6/6 510/6/6
f 507/6/6 510/6/6 511/6/6
f 511/6/6 510/6/6 512/6/6
f 513/5/6 514/5/6 515/5/6
f 515/5/6 514/5/6 516/5/6
f 517/5/6 518/5/6 519/5/6
f 519/5/6 518/5/6 520/5/6
f 521/4/6 522/4/6 524/4/6
f 522/4/6 523/4/6 524/4/6
f 524/4/6 523/4/6 525/4/6
f 521/4/6 524/4/6 526/4/6
f 524/3/6 525/3/6 527/3/6
f 526/4/6 524/4/6 527/4/6
f 527/3/6 525/3/6 528/3/6
f 529/5/6 530/5/6 531/5/6
f 531/5/6 530/5/6 532/5/6
f 533/5/6 534/5/6 535/5/6
f 535/5/6 534/5/6 536/5/6
f 537/2/6 538/2/6 539/2/6
f 539/2/6 538/2/6 540/2/6
f 541/2/6 542/2/6 543/2/6
f 543/2/6 542/2/6 544/2/6
f 545/2/6 546/2/6 547/2/6
f 547/2/6 546/2/6 548/2/6
f 549/5/6 550/5/6 551/5/6
f 551/5/6 550/5/6 552/5/6
f 553/5/6 554/5/6 555/5/6
f 555/5/6 554/5/6 556/5/6
f 557/5/6 558/5/6 559/5/6
f 559/5/6 558/5/6 560/5/6
f 561/5/6 562/5/6 563/5/6
f 563/5/6 562/5/6 564/5/6
f 564/5/6 562/5/6 565/5/6
f 565/5/6 562/5/6 566/5/6
f 567/5/6 568/5/6 569/5/6
f 569/5/6 568/5/6 570/5/6
f 571/5/6 572/5/6 573/5/6
f 573/5/6 572/5/6 574/5/6
f 575/5/6 576/5/6 577/5/6
f 577/5/6 576/5/6 578/5/6
f 579/5/6 580/5/6 583/5/6
f 581/5/6 582/5/6 584/5/6
f 584/5/6 582/5/6 585/5/6
f 583/5/6 584/5/6 585/5/6
f 577/3/6 578/3/6 586/3/6
f 586/3/6 578/3/6 587/3/6
f 583/5/6 585/5/6 588/5/6
f 579/5/6 583/5/6 588/5/6
f 586/5/6 587/5/6 588/5/6
f 585/5/6 586/5/6 588/5/6
f 588/5/6 587/5/6 589/5/6
f 587/3/6 578/3/6 590/3/6
f 589/5/6 587/5/6 590/5/6
f 589/3/6 590/3/6 591/3/6
f 590/3/6 578/3/6 592/3/6
f 591/3/6 590/3/6 592/3/6
f 593/4/6 594/4/6 597/4/6
f 597/4/6 594/4/6 598/4/6
f 598/4/6 594/4/6 599/4/6
f 599/4/6 594/4/6 600/4/6
f 595/5/6 596/5/6 601/5/6
f 601/5/6 596/5/6 602/5/6
f 593/4/6 597/4/6 603/4/6
f 603/4/6 597/4/6 604/4/6
f 605/8/6 606/8/6 607/8/6
f 607/8/6 606/8/6 608/8/6
f 609/8/6 610/8/6 611/8/6
f 611/8/6 610/8/6 612/8/6
f 613/8/6 614/8/6 615/8/6
f 615/8/6 614/8/6 616/8/6
f 617/7/6 618/7/6 619/7/6
f 617/7/6 619/7/6 621/7/6
f 619/7/6 620/7/6 621/7/6
f 621/7/6 620/7/6 622/7/6
f 617/7/6 621/7/6 623/7/6
f 623/7/6 621/7/6 624/7/6
f 625/7/6 626/7/6 627/7/6
f 625/7/6 627/7/6 629/7/6
f 627/7/6 628/7/6 629/7/6
f 629/7/6 628/7/6 630/7/6
f 625/7/6 629/7/6 631/7/6
f 631/7/6 629/7/6 632/7/6
f 633/7/6 634/7/6 635/7/6
f 633/7/6 635/7/6 637/7/6
f 635/7/6 636/7/6 637/7/6
f 637/7/6 636/7/6 638/7/6
f 639/2/6 640/2/6 641/2/6
f 641/2/6 640/2/6 642/2/6
f 643/2/6 644/2/6 645/2/6
f 645/2/6 644/2/6 646/2/6
f 647/2/6 648/2/6 651/2/6
f 651/2/6 648/2/6 652/2/6
f 649/7/6 650/7/6 653/7/6
f 653/7/6 650/7/6 654/7/6
